<svg xmlns="http://www.w3.org/2000/svg" viewBox="0 0 134.62 72"><defs><style>.cls-1,.cls-2{fill:#e0303d;}.cls-2{font-size:49.23px;font-family:Montserrat-Regular, Montserrat;}</style></defs><title>money</title><g id="Layer_2" data-name="Layer 2"><g id="Layer_1-2" data-name="Layer 1"><path class="cls-1" d="M130.52,3a1.1,1.1,0,0,1,1.1,1.1V49.75a1.1,1.1,0,0,1-1.1,1.1H4.1A1.1,1.1,0,0,1,3,49.75V4.1A1.1,1.1,0,0,1,4.1,3H130.52m0-3H4.1A4.1,4.1,0,0,0,0,4.1V49.75a4.1,4.1,0,0,0,4.1,4.1H130.52a4.1,4.1,0,0,0,4.1-4.1V4.1a4.1,4.1,0,0,0-4.1-4.1Z"/><text class="cls-2" transform="translate(58.18 36.22) scale(0.58)">$</text></g></g></svg>