<svg xmlns="http://www.w3.org/2000/svg" viewBox="0 0 220.64 73.5"><defs><style>.cls-1{fill:none;stroke:#e0303d;stroke-width:2px;}.cls-2{fill:#e0303d;}</style></defs><title>speed</title><g id="Layer_2" data-name="Layer 2"><g id="Layer_1-2" data-name="Layer 1"><path class="cls-1" d="M0,73.5" transform="translate(-22.15)"/><path class="cls-1" d="M20.64,73.24" transform="translate(-22.15)"/><path class="cls-2" d="M131,68a5.54,5.54,0,1,1-3.39-5.11A5.54,5.54,0,0,1,131,68Z" transform="translate(-22.15)"/><polyline class="cls-2" points="149.91 59.61 103.78 70.72 102.95 65.82"/><path class="cls-1" d="M23,68s97-152.47,219,2.77" transform="translate(-22.15)"/><line class="cls-1" x1="9.16" y1="56.86" x2="20.79" y2="65.92"/><line class="cls-1" x1="51.85" y1="37.64" x2="39.25" y2="26.25"/><line class="cls-1" x1="88.92" y1="19.07" x2="81.25" y2="3.91"/><line class="cls-1" x1="124.7" y1="19.48" x2="127.06" y2="3.08"/><line class="cls-1" x1="153.81" y1="31.66" x2="163.4" y2="18.16"/><line class="cls-1" x1="186.53" y1="56.21" x2="196.12" y2="42.7"/></g></g></svg>