<svg xmlns="http://www.w3.org/2000/svg" viewBox="0 0 546.33 297.89"><defs><style>.cls-1{fill:#e0303d;}</style></defs><title>united_states</title><g id="Layer_2" data-name="Layer 2"><g id="Layer_1-2" data-name="Layer 1"><g id="US"><path class="cls-1" d="M277.41,8.43l2.23,0H281l0,.54.33.57.28.49.25.43.37.33.52.46.51.45.66.19,2,.55.12,0,.13,0,3.13.59.65.25.47.85,1.06.39.91.33.68.25.72-.09,1.36-.16.35,0,.33-.12,1-.35.59-.22.45-.43.11-.1.54,0,.74.06h.06l1.14.47.72.38,1.27.86,0,0,.39,1.14.7,2h4.41l.26-.41.55.58.24.26.29.19,2,1.32.11.07.12.06,1.22.65.67.36H316l.55-.23,1.57-.65.35-.15.31-.23.45-.34.45.34.92.69,1.14-.1.36,0-.25.09-.28.1-.25.15L319,22.85l-.18.11-.16.14-1,.86-.15.12-.13.14-4,4.23L311,30.59l-3.89,3.13-.17.13-.15.16-.38.4-.73.79-.07,1.07,0,.38-.08,1.27.86.94.32.35.27.3.34.21.81.51.6.38.7.07.63.06.35,0,.34,0,.81-.1.21,0,.2-.06,3.19-.88.23-.06.22-.1.43-.19,1.36,1.5.2.22,1.4,1.55,1.94-.78.75-.3.29.17.27.16.3.1.64.21.76.25.79-.16,1.21-.25.26-.05.25-.1,1.78-.71.19-.08.18-.1,1.52-.87.22-.13.19-.16.9-.74.77-.31,1.49-.18.21,0,.21-.06,1.34-.36.42-.11.37-.23.81-.5.23-.14.2-.18.65-.58.15,0,.71-.08.6-.39.41-.27v.14l0,.64.24.59.13.31.14.33.21.29.13.18,1.87,2.56,2.45-2,.21-.17.32-.26.24-.34.26-.37h0l1.83.29.37.11.34.21.87,1.41.06.09.06.09.55.77.26.36.12.52.53.59.19.21.79.88,1.18.1,1.77.15.36,0,.35-.06.21,0,.11.12.77.23.21.06-2.33,2.95-.22.27-.23.29-.15.33-.32.71-.1.21-.06.23-.21.77-.11.06-.4.63-.59.94-.09.14-.07.15-.77,1.57-.82,1.44-.92,1.4-.19.26-.66.38-.36,1.09-.09.28-.13.38,0,.4v.1l-.45.22-.95.46-.46.95-.22.46-.24.5,0,.26-.56,1-.07.12-.06.13-.44.95-.09.2-.06.22-.29,1-.18.63.09.65.09.62.22,1.49,1.33.72.47.25,1,.56,1.14-.29.38-.1h0l0,.41,0,.5v0h0l-.19.31-.52.87-.15.25-.1.27-.39,1.08-.06.15,0,.16-.22.91-.06.24,0,.25-.05.74,0,.27,0,.27.06.55,0,.32.05.16-.33.77-.06.13,0,.14-.25.79-.11.34,0,.36,0,.31,0,.13-.46,1.07-.1.23-.06.24-.17.69-.07.28V83l0,.63v.25l0,.25.07.58-.07.35.05.46,0,.27v.09l-.1.34.09.65.05.37.13.92.31.33v.11l0,.29.09.28.19.62.11.37,0,.06-.05.25,0,.22v.22l-.1,1.76v3l.14,1.65,0,.44.16.41.29.73.09.23.13.21.32.54.2.34.17.16.11.29.42,1.62,0,.14,0,.13.43,1.18.13.37.22.32.4.57.21.3.27.24.36.32.13.12.24.57,1.32.42.53.17.34.11.35,0,1,.07.29,0,.29,0,.9-.11.33,0,.31-.11.82-.29.26-.09.24-.14,2.6-1.5.2-.12.18-.15,1-.82.28-.23.22-.28.56-.74.13-.17.1-.18.54-1,.07-.13.06-.14.45-1,1-1.64.07-.12.06-.12.52-1.09.06-.13.05-.14.5-1.38,0-.13,0-.13.38-1.45,0-.13,0-.13.25-1.52,0-.13V91.7l.12-1.58V88l0-.22L367,86.14l0-.2-.06-.19L366.43,84l-.27-.85L366.1,83l-.08-.18-.08-.18-.83-2-.61-1.82.4-.77.28-.52.06-.59,0-.24,0-.25,0-.25-.1-1.46,0-.3-.08-.29-.17-.63.06-.08.09-.14.59-1,.1-.15.08-.16.54-1.16.12-.25.07-.26.35-1.36.06-.22,0-.23L367.1,67l0-.16v-.23l.14,0,.53-.93,1,1.84.82-.46L371,68.61l2.12-3.15.61-.91.21-.32.13-.36.51-1.46.39-1.11.11-.32,0-.33.07-.61,0-.29,0-.29-.06-.81h0l.47,0h.3l.29-.07.62-.15.6-.15.49-.37.35-.27,2.12-1.6-1.06-1.83.58.25.38.16.41.05.55.07.37.94.87.52.52.31.6.36.7.06.27,0,.35.3.46.18,2.48,1,.17.09v0l-.09.19-.21.46-.23.49,0,.54,0,.44,0,.64.21.6.14.41.18.51.34.41.57.69,0,.15,0,.64,0,.12-.05.21,0,.22-.11,1.16v.13l-.06,1.17-.23.13-.87.48-.41.9-.33.73-.13.3-.07.32-.12.57h0l-.68.08-.64.48-.54.4-.73.54-.3.86-.4,1.14-.19.53,0,.56v.09L383,76l-.12.43v1.62l.24.54.21.48.32.72.63.47.64.48.26.2.3.14,1.07.48.43.19.46.05.64.07.84.1.77-.35.44-.2.86-.4.43-.74.86-.21L393,79l.22-.38.89-1.58.15-.27.76-.24.14.31.55,2.49.75,4.53V84l.52,2.57L397,87l.14.27-.44,2.33-.2.54-.37.33-.94.83-.16.15-.14.17-.8.94-.42.22-1.3-.67-1.32,2.81-.35.75-.09.2-.06.21-.31,1-.06.2,0,.21-.09.57-.23.25-.16.33-.05,0-.19.25-.44.55-.18.22-.13.25-.75,1.44,0,.05,0,.05-.14.3-.66,1.4.76,1.35.12.22.71,1.26.35.06-2.74,1.36,7.4,2.14.64.19.51.15.53,0,.65,0,.5,0,.47-.2h0l.28.06.19,0,.14.09.42.28.48.13.42.11.67.18.68-.13.44-.08.55-.11.48-.3.19-.12.6-.22,1.19-.36.94-.12,1.13.07.3,0,.3,0,.89-.13.57-.08.5-.29.82-.47.24-.14.21-.18,1.61-1.39,1.7-1,3.14-1.44,5-1.83.22-.08.2-.11.75-.42L423,101l.06,0,.06,0,.3-.18.34-.17.08,0,.07,0,3.52-2,.08,0,.08,0,1.81-1.16.23-.15.2-.18.78-.72.67-.49.84-.47.3-.17.25-.23.8-.72.27-.25.21-.31.43-.64.19-.19.39-.24.42-.25.32-.37.38-.45.59-.7.1-.91.05-.47.06-.48-.1-.48-.13-.64-.05-.25-.09-.23v0l0-.3.05-.31.21-1.3-.18-.23,1.43-.22,2.21-.08,2.62.4.56.2.44.32.57.41.69.12.9.15.63.11.62-.16.75-.19,1-.06,1.11.05.76,1.06,2.22-1,.12-.05.86-.37.48.26,1.56-1.31.28-.24.33-.28L457,84l.17-.26.26-.24.56-.38.12,0h.7l.38-.12.55-.17.81-.25.56-.63.28-.31.43-.49.19-.62.08-.28.33-1.08-.1-.22.08-.23-.37-1,0-.66v-.06l.1-.13.13-.17.14-.1.29-.46.27-.41L465.26,72l-1.49-.31.64-.47.24-.18.2-.22.39-.43.39-.43.2-.54L466,69l.16-.43L468.71,66l1.77-1.43,1.27-.69.5-.17.29,0,.3,0,.29,0,.32,0h32.12l.72-2,.51-1.42.45,0,.5,0,.44.62,2.14-.76.31-.11,1.14-.41.54-1.09.07-.14h.09l.95-1.19.2-.25.73-.91-.08-1.16,0-.36v-.13l.86-.59.22-.15.19-.19L516,53l.71-.71.14-1v-.06L517,51l.07-.08.06-.09.35-.52.35-.52.12-.61.08-.45.14-.76L518,47.2l0-.07v-.29l.19-1,.2-.95.33-.63.89-1.14.48-.62.12-.77.28-1.8.18-1.2.89-1.28,1.46-2.1.84-1.21L525,32.36l.26.31.48.27.62.35.35.2.39.1.47.12.38.09h1.58l.58-.27,1.27-.58,1.51-.38.23-.06.22-.09.57-.25,1.32,1.28.32.32v.78l0,2.15,0,2.26,0,1.62,0,2.2,0,1.75,0,2.28,0,1.21v.65l0,0,0,.14,0,.35v.13l0,.13-.08.35-.06.27v.27l0,.57,0,.73.31.66.17.35.32.68.6.45.28.21.8.59h.12l0,0,.24.13v.07l.32.78.15.38v0l-.1.44-.23,1,.48,1,.19.38.22.43.34.34.27.27.14.21.42.65.68.37.49.27.33.18v.15l-.93.56-.4.24-.36.06-1.58.26-.17.38-.76.21-.46.12-1.45.39-.19.47-.43-.17h-1.35L532.67,62l.06-1.88-.83.66-.27-.43-.29.87-3.68,2.91-.35.28-.5.4-.3.57-.07.13-.39.25-1.48.93.08,1.75,0,.43-.73,1.67-.16.37-.16,0-.46-.85-.58-2.25-.39.45L521,66l-1.28,5.11-.21.24-2.09-1.44-.41,3.2-.61.18-.58.17-.47.38-1.1.89-.33.27-.24.35-.86,1.23-1.71,2.47.53.36-1,1.08-.34.38-.19.47-.82,2-.11.08-.27.35-.4.51-.39.5-.16.62-.4,1.57-.45,1.38-.35,1.05.42,1,.2.47.05.2-.15.29-.29.56-.37.55-1,1.17-1.95,2.29L506,97.88l.47.4.52.44.66.17,1,.25.09.2-.14.57-1.77.13,0-.05-.67-.26-.29-.11-5.21-2,1.16,5.37-.33.48-.06.81-.06.87-.45.12-1-.09-.33,0-.33,0-1.36.19-.14,0-.14,0-1.09.26-.28-.07-1-.26-1,.42-.49.22-2.36.08-.22-.07-1.67-.55-1.3,1.19-.47.43-.9.31-.2.07-.19.1-2.61,1.32-.19-.28-.41-.59-.18-.26-.23-.22-.42-.4-4.9,3.16.35,1,0,1,0,.3-.58,1.22h0l-.42.21-.34.33-.32.31-.17.16-.14.19-.37.5-.27.36-.15.43-.35,1-.3.84.21.87.22.9.46,1.9,1.77.32v0l-.17.88-.17.12-.33.75-.21.47-.13.28-.06.3-.46,2.16v0l-3-.66.11-.24-4.38-2.76-.07-.26-.25.07-.33-.21-.33.38-.5.13-.34.09-.31.17-.76.41-.4.22-.32.33-.6.62-.1.1-3.67,1.66-.1,0-.16,0-1.1.19-.43-.83-.3.38-1.88-1.8-.39,4.72-.29.38-.14.18-2.05-.78-.66,3.54,0,.18-.12.65-1.05.3,1.57,3.21.06.12,0,.05,0,.39h-.63l-2.72-4.44,0,4.42h-.85l0,0-.06,0h-.54l0,.45,0,0-.18.14-.16.16-.91.92-.56.57-.2.78L446,142l0,.11,0,.11-.28,1.6-.09.51-2.49.11,5.43,4.9,1.47,1.32.5.78.09.14.1.13v0l.13,2.45-1.44-.09-7.56-.45,5.2,5.51.23.24.33.35.42.23.29.16.46.25.51.08,1.1.17.13.1.4.3.48.16.83.27.16.64.76.64.42.35.25,1.2-2.23-1.3,3.2,6.7-3.66.19-.06,1.12,0,.34.06.34.14.79,0,.5-.22,2.79,1.27.19L448.81,180l.62.8.49.62.73.3.27.11-2.07,1.74L444.7,177l0,10.32v1l-1,.89-.28.18-.3.19-.25.26-.51.54-.17.18-.14.21-1,1.55-.31.46-.12.55,0,.13-.91.07v.13l-1.23,0h-.48l-.46.14-1.63.5-.43.13-.37.25-2.5,1.69-.23.16-.2.2-.75.74-.17.17-.14.2-2.06,2.86-.31.42,0,.11-.71-.18-.52,1-.61,1.14.23.68h0l-.84.3-1.51.53-.37,1.45-5.32-1.11,1.53,3.71h0l-.47.18-.71.28-.12.14H419l0-.14-.19.11-.63-.08-.8-.11-.75.31-4.49-6.29.37,8-3.1,1.3,3.23,1.34,0,.45,0,.54.1.25-.17.28-.31.5-.4.65-.49.3-.29.17-2.2,1.32.55,1.37-.89,1.14.18.71-.1.25-.16.39-.06.15-.78-.63-.28,1.26-.58.14.2,1.56-.39,1.77-.18.8-.12.55.07.46-.05.26-.19.72-.09.21-.29.65,0,.71,0,.8v.15l0,.15.12.77.06.4.16.37.29.64.61,3.67,0,.23.07.22.41,1.26.8,3.63,0,.21.08.2,1.37,3.65,0,.08,0,.08,1.94,4.39,0,.05.33,2.31.19,1.31,0,.31.11.29.21.57.32,1.68.08.42.19.38.5,1,.28.79,0,0,0,0,4,10.35.14.36.23.31.71,1,.12.31.28,1.49.07,2-.62,4.33,0,.14v.14l-.06,1.2-.19.49-.48,1.2-.65,1.07-.32.54-.08.62-.18,1.43-.55.26-.3.14-.05-.07-.52-.67-.79-.3-.08,0-.62-1.29-.12-.24-.16-.22-.72-1-.07-.37-.32-1.76-1.69-.56-1.52-.5-.44-.3-.34-.64-.44-2.56-.09-.5,6-9-5.3,2.51.62-.9-5.51-.14-.78,0h-.55l-.36.13-1.12-2.39.32-.48.73-.85.32-.37.19-.45.28-.68.33-.8-.15-.85-.05-.29-.15-.84-.57-.64-.38-.43-1.82-2,.41-1.3.12-.39v-.41l.09-2.88,0-.29,0-.34,0-.34-.07-.81-.06-.73-.39-.62-1.12-1.76-.23-.37-.33-.29-4.69-4.11-3.63-4.88-.37-.49-.53-.31-3.31-1.93-.94-.55-1.07.18-2.51.42-.85.14-.64.57-.44.39-.56.5-.09.25-.19,0-.49.28-1.59.91-.7,0-.69.32-.5.23-.29-.56-.53-.41-1-.75.26-.7-.18-.16,2.74-4.2-6.37.75-.68.08-.66.08-.47.29,0-.12-.24-.72-.55-.52-.27-.25-.45-.42-.58-.21-.87-.31-.65-.24-.69.07-.63.07-.23,0-.95-.2-.89.39-.71.31-.16.07-.15.09-.25.15-1.18-2.88-2.91,1.51h-.27l-2.58,0-.19,1.33-1.1.51-.32.15-.08-.23-.25-.71-.17-.49-.33-.41-.59-.74-1.77-2.21L345.61,230l-.2.14-.78.56-.31.91-.44,1.26,0,.1-2.36.15-.52-.24-.3-.14-.33-.07-.5-.11-.38-.08-.39,0h-.31l-.46,0-.43.16-1.25.46-.64.16h-.38l-.54,0-1.42,0-.93,1.07-.59.67-1.5-.49-.34-.35-.6-.63-.84-.21-.77-.19-.19,0-.19,0-.94-.11-1.53-.18-1,1.14-1,1.11-.27.29-.18.35-.77,1.49-1.22,2.37,2.2,1.49,1.21.82h0l-.13,2.81h-.14l-.62,0-.58.22-.79.3-.9.34-.41.62-.1,0,0-.13-.46-.63-.29-.4.57-3.32-3.73.18h-.27l-.63,0-.46-.69-.85-1.28-1.48-.05-1.07-1.52-2.11.7-1.18.39-.44.15-.38.27-.59.43-.34.25-.26.33-.52.66-.18.23-1.85-.21-.56-.2-1.3-.74-.25-.14-.28-.09-2.11-.7-.3-.1-.31,0-1-.11-.37,0-.37.05-.83.11h-.31l-.79-.9-.24-.27-.83-.94-1.25-.08-.45,0-1.89-.11-.92,1.65-1,1.79-.19.35-1.84.82-.31-1.93-2.47-.08-.86,0-1.67-.05-.34.5-.35.1-.38.11-2.53.73.4,2.6.28,1.86.11.7,0,0-.52.45-.86.75-.15,1.13h0l-.25.27-.77.5L273.52,251l-.55.27-.19.09-.17.12-.85.56-.33.12-.11-.32-.48.05-1-.24-.3-.07h-1l-.08-.17L267,251l-.31-.08-1.12-.29-1,.54-.3.16-1,.54-.8-.75-.24,1.29-.47.24.3.65-.53,2.86-.64.74h0l-.26.07-.57.15-2.32.6.07,2.37-.17.07-.29.11-.51.21-.41.37-.26.24-1.92,1.77-6.33-5.15,4.3,10.75.72,1.8.56,1.39.59.16-.3.75.48,1.13.15.35.25,1.26,0,.24.08.23.15.4.25,1.83,0,.28.09.27.28.85h0l-.29-.09-.3,0-2.4-.21-1-.27-.51-.39-.29-.22-.33-.14-1-.45-.39-.17-.42-.06-.61-.08h0l-.33-.32-.4-.39-.52-.22-1-.43-.36-.15-.38-.05-.43-.06-.46-1.74-.09-.33-.16-.31-.69-1.29-.15-.27-.2-.24-.62-.75.07-.4-.12-.57-.14-.67-.14-.67-.09-.12v-1.39l-.08-.36-.2-.86-.18-.77-.53-.58-.85-.93-.25-.27-.31-.2-1.17-.78-.8-.92-.9-1.64-.12-.21-.15-.19-1-1.34-.26-.34-.35-.25-.47-.34.27-.3-1-1.85-.63-1.2-.06-.11-.07-.11-1.34-2.09-.57-1.13-.13-.64-.13-.65-.39-.53-.91-1.23-.19-.25-.23-.21-1.5-1.34-.32-.34h0l-.68-2.06h-1.17L223.8,242l-.43-.7-.35-.57-.56-.36-.33-.22-.05-.81-2.64-.17h-.21l-.93-.06-.55.32h-.42l-1.91-.12-1-.21-.64-.32-.77-.38-.85.08-.7.07-1.46.14-.65,1-.59.08-1,.14-.72.75-1.13,1.17-.37.39-.21.49-.94,2.17-.07.17-.05.17-.41,1.39,0,.13-.59.59-.17.17h0l-2.12-1.37-.13-.08-.14-.07-1.79-.91-.28-.14-.3-.08-.89-.24-.45-.27-.72-.73-.17-.17-.19-.14-.91-.68-.3-.23-.35-.14-.17-.07-.32-.37-.85-1.46-.28-.73V238l-.24-.57L190.88,234l0-.11-.05-.1-.78-1.48-.15-.29-.21-.25-.58-.68-.24-.28-.3-.22-1.13-.82-.14-.1-.15-.08-1.44-.81-1.93-1.63L181,224.35l-.08-.09-.09-.08-2-1.73-.28-.24-.34-.17-.73-.36-.4-.41-.67-1.16-.15-.26-.2-.23-.84-.95-.38-.43-.52-.26-.09,0-.27-.13-.29-.08-.07,0-.38-.1h-17l-3,0,0,3v1.21l0,.79H129.89l-4-1.45-4.49-1.63-4.49-1.64-4.49-1.64L108,214.53l-4.49-1.65L99,211.24l-1.5-.55,1.47-4.12-4.77.54-1,.12-2.67.24-2.71.24-2.71.24-2.71.24-2.71.24-2.71.24-2.71.24-.2,0-.23-.22-.2-.2v0l0-.42-.07-.74,0-.29-.08-.28-.53-1.81-.12-.41-.23-.36L71.08,202l-.22-.34-.3-.27-3-2.74-.22-.2-.26-.15-1.25-.74-1-.92-.4-.38-.51-.21-.77-.32-.43-.18-.46,0h0l-.93-1.57-.65-1.1-1.25-.29-.88-.2-.41-.1-.42,0L56,192.3l-1.68-.57-.26-.94-.92-.61-1.38-.92-.16-.11-.17-.08-1.82-.91-.93-.46-1,.21-.55.12-.52-.06-1.57-.54-.37-.13-.39,0-1.1-.08-.24,0-.24,0-1.12.1,0-.15.05-.31.1-.59-.13-.58-.22-1,.16-.84.18-.94-.4-.87-.24-.53-.26-.57-.46-.42-.46-.41-.35-.31.06-.29-.53-1-.37-.69-.42-.78-.77-.43-.6-.33-.7-.94-.37-.49-.53-.31-.51-.3-.18-.42-.23-.56-.43-.42-.4-.39-.06-.15-.13-.33-.21-.29-1.89-2.64-.13-.19L31,168.7l-1.46-1.5,0-.12v-.2l.09-.12.2-.26.14-.3.42-.88.34-.7,0-.77,0-.81v-.22l0-.22-.12-.59-.12-.58-.33-.49-.69-1-.66-1-1.16-.26-1.35-.31,4.15.49-2.6-5-.25-.48-.16-.32-.1-.11-.13-.41-.06-.19-.09-.18-.31-.65,1.63.09.71,0,.58-.25.11,0,.39,0,.45,0,.74-5.82-1-.34-.79-.28-.82.17h-.06l-.15,0-.25,0h-.25l-.49,0-.56-.4-.78-.09-.36,0-1-.11-.65.39-.45-.28-.53-.11-.53-.11-1-.21-.93.47-.86.43-.1.05-.18-.24-.74-1-.35-.45-.2-.12-.33-.81-.35-.87-.78-.51-1.16-.76-1-1.27-.09-.12-.11-.11-1.89-2-.1-1.41,0-.34-.1-.33-.72-2.37.23-1,.09-.39,0-.4-.05-1.27V129l-.07-.29-.47-1.92-.07-.29-.13-.27-.49-1-.13-.27-.18-.24-2.12-2.88L8,121.58l-.19-.18L6.4,120.1l-.06-.31L7,120l.6-3.35,0-.14,2-3.72-1.17-.16h0l-.06-1.93L9,108.21l.09-.39v-.4l0-.95v-.26L9,106l-.43-2,0-.19-.06-.18L8,102.31l-.19-.55-.09-.1,0-.13v-.43l0-1.22,0-1-.6-.78-1-1.23-.33-1.48-.06-.57.12-2.36,0-.55-.17-.52-.35-1.11-.07-.22-.1-.2L4.8,89l.07-.29L5.19,88l.1-.23.06-.25.72-3,.15-.14L7,83.62l3.05-3L7.85,79.59l.44-.68,0-.82.17-4.69.25-3.14.32-.79.3-.74-.11-.79-.12-.87.15-1.32,0-.3,0-.3-.12-1.41,1-8,0-.39-.05-.39-.06-.46.19-.82.11-.46,0-.47-.29-3.42.05-1.54h.22l.21-.08.16.2,1.06.21.77.15.49.09.49-.07,1-.13L22.58,47l-6.86-4.39-.29-.19-.59-.38-.4,0,0,0-.3-.36-.93-1.12-1.46,0h-.28l-.6-.73-.24.05.16-1.28.18-1.43-.75-.78,3.61-2,1.85.17,1.07.1.45,0,.25-.05.41.25.76,0h.26l1,.05.82-.54.71-.47.49-.32.33-.48.22-.31.2-.29.13-.33.13-.34.23-.12.58-.31.4-.52.63-.83.53-.7.07-.87,0-.33,0-.31,0-.31-.19-1.58,0-.78,0-.61-.2-.56,0-.5,0-.5,0-.52.11-.21.19-.36.08-.35.42-.64.87-1.33-.61-1.47-.18-.44-.22-.54-.41-.42L25,16.54l-.17-1.2L24.74,15l-.1-.67-.37-.56L24,13.41l-.11-1.27,0-.46-.05-.59L23.78,11V9.75l-.08-.35-.22-1H277.41M3.3,18.72l.27.09.31.25.38.31.46.18L5.87,20l.36.14.39,0,6.45.69.4,0,.4-.06.22,0,.31.32.68.17-1.89,2.95-.1.16-.08.17-.76,1.6-.22.47-.05.52-.07.72,0,.25,0,.25,0,.42.13,2,.56.19-.65.8-3.09-.67L8.48,31l-.64-.75h0l0-.11,0-.31-.11-.29L6.7,27.12l-.58-3.27L6,23.48l-.15-.34-.8-1.76L4.9,21l-.31-.35L3.42,19.32l-.06-.16-.06-.43M372.35,40.54l0,.23.42.78.13.25.67,1.24-.67-.16-.36-.08h-2l-.66.37-.72.4-.59.33-.39.54,0,.06-.43,0-.34,0-.33.11-.41.13-.28,0-.79-.08-.4,0-.4.06-.81.13-.47.08-.43.22-.59.31-.06,0-2,.44-.6.13-.24.05-.44-.14-1.39-2.19.85.26.27-.13.26.24,1.28-.08h.16l1.1-.07.79-.77.85-.82.92-.66,1.26-.73.55-.12,1.22-.26.88,0,1.6.17.36,0,.35,0,1.65-.22.28,0m2,2.69.77.11.58.08.1.06.66.37H378l-.24.16-.41.26-.25.16-.54-.34-.26-.17-.29-.11-1.51-.57-.12,0m97.94,83.56.79,3.72-.22.14-.41.26-.31.38-.23.29-.23.29-.57-.22-.59-.23h-.1l-.25-.26-.36-.21-.74-.43-.47-.53.16-.44,1-.27,1.14-.3.63-1,.47-.75.12-.18.09-.2,0-.06m-8.56,8.51.07.85,0,.58.26.52.77,1.53.08.16.1.15.89,1.33-.33.3-1.56.43-.4-.74-.15-.28-1-1.8h-.1l-.1-.35-.06-.22.24-.56.22-.51,0-.56,0-.5v-.24l.94-.1m1.64,10.16-.07.15,0-.13h.09M455.15,165l.94.09h.15l0,.55-1.13-.66m3.16,0v.08h0l-.07,0,.09,0M279.73,0l0,2.41,0,3-2.23,0H18.18l.63,2,.35.84.31.44.51,0,.18-.18.17,0,.16.23.31,1.33,0,1.63.13.25,0,.46-.43.25-.81-.14-.28.11-.11.35.06.27.23.19.52.07.39.25.5.52.76,1.14.05.35-.6.15-.51.42-.08.42.11.56.22.41.94.65.08-.08-.36-1.21.08-.11.26.25.34.74.34.48.53.54.18.44-.72,1.1-.11.49-.59,1.1-.08.51.19.45,0,.5-.22.56,0,.34.28.35.12.33-.07,1.06.23,1.86,0,.33-.63.83-.42.23h-.44l-.29.27-.59,1.51-.22.31L19,32h-.26L18,31.53l-1,.2-1.07-.1.38-.47.3-1,.35-.63.86-.65L18,29l.28,1.43.15.1.45-1.21.12-.16.56.49.42.09.25-.26.23-1.55,0-.81-.27-.91L19.25,25l.1-.07.34.13.14-.1-.16-1.08.11-.28.9-.79.12-.65-.21-1.46-.5-.11-.06.16,0,.85-.19.29-1,1-.37.86-.54.59L17,25.1l-.66.67-.63,1.12-.11.36-.06.76L16,28l1-.24-.05.15-1,.66-.69.17-.3-.1,0-.42.07-.72.76-1.6,2.17-3.38.15.13,0,.68.22,0,1.15-2-.22-.71-.57-1.15-.28-.89v-.62l-.1-.25-.78.67L17,18.5l-.62.05-.48-.12-.95-1-.35-.05-.83.43-.42.07L6.94,17.2l-1.16-.45-.73-.6-2.4-.83L.73,14.28,0,14.2l.28,1.34-.21,1.9.36,2.51.4,1,1.52,1.69.8,1.76.63,3.55,1,2.73.27,1.69.07,1,.23.84.21-.63.05-.48.66.08.53.62,1.36.29L5.66,35.45l.39,1.63,1.08.5.65.67L7.56,40l-.32,1.38-.66-1.22L6.31,39l-.06,1.57,0,1.61L6,43.45l1.07-.29.61.45,2-.44.36.44,1.76,0,.57.68,1,.68.45.05.29.19-1,.13-.77-.15-.61-.74-.52-.18-1.44.55H7.56l-.49-.59-.25.08.13.56.27.52-.13,4L7.4,53l-.32,1.36.14,1-1,8.33.14,1.72-.2,1.7.17,1.25-.49,1.21-.3,3.66L5.32,78,5,78.5,4.47,80,4,81.65l.52-.35.34.17-.75.73H3.7l-.25.35-1,4.26-.42,1-.39,1.6.91,1.83.35,1.11-.13,2.59.1,1,.52,2.31,1.36,1.76,0,1.22-.34,1.27.77.87.43,1.23.43,2,0,.95-.68,2.86.07,2.33-.63,1.84-.18.39,0,.2.3,0-.17.32-.11.62L4.35,116l.08-.3-.11-.16-.28.37-.39,1.4-.45,1.33.14,1.49.31,1.47,2,1.94,2.12,2.88.49,1,.47,1.92.05,1.27-.4,1.79,1,3.13.17,2.47,2.62,2.8,1.28,1.69,1.6,1,.71,1.73.56.34.74,1,.3.88-1-1.25.09,1.56-.31.93,0,.37.63-.8.56.35,1.07,1,.76.52.91.34.6.57.51-.14L21,149.54l.1-1.86.86-.43.53.11,1.22.76.52.08,1.16-.69.36,0,.56.4.51.14L28,148l.63.07.53-.11,1,.34-.45,0-.62-.1-.75.33-3.5-.19-1.23.11-.92.4-.67.56.19.47.3.29.35,1.27.7.69.61,1.26.32,1,.26.3.25.48-.46-.05-.45-.22-.59-.74-.65-.33-.68-.76-.2-1,.06-.56-.58-.11-.65.31.13,1.42v1.31l.86,2,.13,2L24.09,161l2.68.61.69,1,.12.59,0,.81-.42.88-.79,1,.08,1.64.31,1.19,2,2.07,1.89,2.64.3.74.85.83.57,1.35,1.38.8,1.09,1.46,1.17.64.37.69-.23,1,.26.75,1.42.6.46.41.24.53-.28,1.46.36,1.57-.12.72.1.92-.17,1,.8.41.75.83.8.14,2.15-.19,1.1.08,1.89.65,1.33.14,1-.21,1.82.91,1.38.92.3,1.06.87.59,3,1,2.21-.12.88.2,1.07,1.81-.17,1.3,1.1.36.28-.52,1,.09.77.32L64,199.92l1.55.92,3,2.74,1.41,2.2.53,1.81.07.74-.14.75.26,1.59.56-.27.44.43.07,1.22,0,.07,2.71-.24,2.71-.24,2.71-.24,2.71-.24,2.71-.24,2.71-.24,2.71-.24,2.71-.24,1.08-.12-.6,1.69-.45.63,4.49,1.65,4.49,1.65,4.49,1.65,4.49,1.64,4.49,1.64,4.49,1.64,4.49,1.64,4.49,1.63h26.76V223l0-1.25v-1.24h16.65l.07,0,.09,0,.84.95.86,1.48,1,1,1.17.59,2,1.73,2.83,2.86,2.25,1.9,1.68,1,1.13.82.58.68.78,1.48,1.46,3.42v1.56l.56,1.48,1.12,1.92,1,1.13.84.34.91.68,1,1,1.14.68,1.29.35,1.79.91,2.28,1.47,1.56.75.85,0,.74-.47.63-1,.62-.63.61-.28.25-.45-.11-.62.41-1.39.94-2.17,1.13-1.17,1.31-.18.86-.41.4-.63.7-.07,1,.5,1.63.32,2.26.14,1.33,0,.41-.24h.21l0,.27.33.11.65,0,.57.37.73,1.18,2.5,1.88h0l.21.64.87.93,1.61,1.43.91,1.23.21,1,.82,1.63,1.43,2.22.63,1.2-.16.17.11.62.38,1.08.7.91,1,.75,1,1.34,1.06,1.93,1.28,1.46,1.5,1,.85.93.2.86V268l-.23.61.1.58.42.55.14.67-.17.93v.26l.12.21,1.34,1.61.69,1.29.55,2.06v0l.61,1.23.88.5,1.35.19,1,.43.7.67.88.4,1.06.14,1,.45,1,.75L252,282l2.66.24,2,.61,1.39,1,.61.2h.17l.08-.15.1-.28.54-.32,1.28-.21.06-.71-.09-.37-.6,0-1.78-3.45-.31-.94-.29-2.17-.27-.71-.31-1.56-.27-.63.36-.91.39-.68v-.58l-.1-.68-2-.53-.72-1.8.82.66,1.5.86.42,0,.38-.12.56-1,.87-2.67-1.35-1.77.26-.24.29-.11,1.16.17.76-.27.93-1.14.37-1.15-1,.35-.13-.45V260l.57-.15.76-.06.46-.28.32-.37.13.42.27.3.49-.39.31-.28.12-1.08.2-1.08.92.86,1.09-.28.69-.42.64-.55-.51-.23-.47-.1L265.69,254l.3-.16.31.08.15.34.32.39.73.58.7-.39v-.28l.93,0,1.52.35,1-.1-1.15.76-1,.77.51-.14,1.52-.91,1.58-.57,1.15-.77.73-.35,2.54-1.65,1.08-.7,1.15-1.24.12-1,1.14-1,1.23-1.2-.45-1-.54-.76-.28-1.86.38-.11.5.35.38,0,.55-.82.86,0,.17,1-.51,1.16.43.13,1.2-.35.75.22-2.12,1.41-.09.36,1.75-1.09,4.5-2,2-.21,0-.36-.57-1,1-1.79.45,0,.24.27,0,.42-.34.69-.37.35-.34.09.17.59.37.33.57-.3.67-.19,2.9-.07,1-.14,1,.11,2.11.7,1.52.86,1.14.41,3.89.44,1.68-.39.24-.27-.52-.55-.2-.34.52-.66.59-.43,1.18-.39.65.92,1.44.05,1,1.52.48.54,1.73.45.5-.53h.27l-.11.63.15.52.84,1.15,0,.35-.82-.14-.43.11-.07.34,2.72,1,2.38.67.7-.21.86-1.31.79-.3,1.17.05.74.42.52,1.35.32.28.73-.33.33-.49.18-.63.08-.61.2-.43v-1l-.46-.34-.38-.18-.19-.27,0-.35,2.67.86.56.45.2.38,0,.51.71.22.42,0,.5.15.41.37.53.2.75.59.51,1,.34.37-.21,1,.43-.19.89-.89.38.29.38.4.21-.32.23-.57.84-.48.05-.65-.47-.17-.49-.32-.6-.94-.61,0-2.54-.94-.63-.71-.89-.57-.43-.87.3-.29.06-.31.2-.09.39.1.58-.26-.3-.29.57-.51.71-.13,1-.39-.08-.21,0-.88-.41-.62-.12-.36.12-.38-.89-.13-.65.61-.25.94-.4.12L331,240.8l-.67-.84.36-.42.59-.35.47-.42,0-.3-.66-.3-.34.38-.37.15-.77,0-.95.73-1.71.33-1-.39-1.21-.82.77-1.49,1-1.11.94.11.77.19.86.9,3.46,1.12,1.37-.62,1.16-1.33.54,0,.38.12,1.61-.39,1.41-.51h.31l.5.11,1.21.56,3.24-.2,1,.11,1.08,0,.18-.53.36-1.65.44-1.26.2-.14.59.74.25.71v1.22l.25.39.38.07.41.66.22.6-1.08.35-.77.05-.2.26,3.63-.37,1-1.13.61-.28,0,.33-.54.6.24.16,1.84-.49.28-.63.63-.62.13-.93h.49l.44.42.36-.58.34-.18.31.75-.2.78-1.31.37-.38.25-.35.38,2.21-.36,2.72-.33.7-.24.78-.46.71-.31.7.15,1.11-.12.87.31.27.25.13.39-1.1-.25-2,.33,2.64.73,3,1.29.61.46.33.05.12-.37,0-.47.62-.38.68-.08-.35.54-.21.52.5.45-.12.34-.5-.05,1.62,1.59,1.43,1.09.44.85-.07.43-.21.2-.45-.49-.29-.62v.81l.35.79.54.16,1.26-.3,1.48-.14.57-.26.76-.35.84.05,2.37-1.35L381,241l.67,0,.23-.24-.16-.58.19-.51.44-.39,2.51-.42,3.31,1.93L392,246l4.93,4.32,1.12,1.76.07.81-.06.45-.09,3-.83,2.66-.9,4.17.34.74.3.45.31.27.26-.25.52.16.33-.29.14-.33.14-1-.35-.26-.39-.7.37-.19.53.24.56.86.21.1.5-.37.38.43.05.29-.28.68-.85,1-1.09,1.63-.48.1-.27.17.56.54.33.51,1.7,3.62.83,1.31.6.69.45.23.59.09.11-.36-.12-.66.81-.28.78,0-.51.74-.1,2,.36,1.61.31.13.34-.13.47-.84.37-.35.5-.24-.63.95-.6,1.13.26.24.61.34.52,3,.91,1.71,1.39,1,1.93.63.19,1,1.12,1.55,1.08,2.25.53.3.73.28.38.49-.24.42-1.25-1-.36.1-.21.42-.08.42.54.94.93.05,1.42-.45,1.19.21,1.69-.79.69,0,1.12-1.06.37-1,.26-2,.77-1.28.57-1.43.15,0,.06.33.09.09.15-3.12.65-4.59-.08-2.52-.36-2-.35-.94L421,270l-4-10.35-.34-1-.59-1.16-.36-1.93-.29-.8-.19-1.31h.28l.35.28-.08.53.13.54.62.34.11.24-.38.67,0,.57.36,1.26.27-.32.11-.83.2-.7.25-.05-.15,2.17.12,1.52,1,2.6.4.36-.72-1.81-.37-1.18-.11-1,0-1,.12-.66.41-.64-.38-.75-3.18-5.3L412.72,246l-1.37-3.65-.83-3.78-.46-1.4-.68-4.05-.44-1-.12-.77,0-.8.19-.43.28-1,.17-.87-.07-.42.18-.8.28.22.45.08.72-1-.38-.55-.46-.21,0-.23.81-.2.35-.71.37-.4.41-.65-.19-.08-.26.11-.34-.11.16-.39.68-.4,0-.39-.2-.23-.11-.41.34-.43.6-.11.3-.38v-.28l-.29-.3-.17-.42.29-.17.35,0,1.16-.59.49-.94-.09-.43.31-.5.55-.13.31-.18.6-.82-.07-.34-.3-.22-.3-.37-.31-.73,0-.94.88,1.24.25-.13.05-.36.29-.17.2.78.17.37.27.06.62-.41.26-.3.11-.79-.53-.59-1-.41.59-.25,1.05.14.93.23.89-.41.37-.44.47-.18.55,0,1-.34.77-.53.45-.69-.37-.91,1.21.25.66-.42,1.14-.95.26-1,.84-.3.75-.17,1.36-1,.44-.56-.49-1.47.52-1v.47l-.1.57.42.77.53-1.82,2.06-2.86.75-.74,2.5-1.69,1.63-.5,3.72.06.4-.92.17-2,.26,1.09-.06,1,0,.56.38-1.25.26-1.13,1-1.55.51-.54.45-.29,1.25-1.07,1.31-.86-.21-.32-.1-.43v-1.59l.26.42.25.85.59.2.42-.14,1.12-1.06.8.12,1.45,0,.94,0,.6,0,.25-.52.84-.21,1-.08.73-.75.74-1.08-.9-.61-2.73.56-1.46-.34-.72-.63-.9-1.49,2,1.72.77.17,1.43-1,.14-.35.06-.56.39-.72.5-.64-.38-.4-.4-.28-3.58-1.49-.62-.8,1.45.74,1.38.37,1-.25.22-.88.32,0,.42.28.16.83.25.46.4-.12.54.07,1.09.37,1,.17.67-.3,1.3-1.48,1.82-1.61.28-1.38-.13-.9-.13-.66-.38-.65-.4-.05-1.18.75-.21,2-.42.36h-.36l.07-1.12.15-1.06-.09-1.07-1.29-.24-.54.28-.9.17-1.38,0-1,.14-1.09-.16.07-.88-.2-1.16.06-1.12.15.95.36.85,1.13.7.76-.15.52-.46.38-.77.59-.05.89.26-.41-.86.46.27.68.25.08-.81-.06-.75.88.52,1,.3.63.39.6.74-.44-1.81-.55-1.35-.51-.54-.13-.52.31-1.14-.13-.34.08-.44.18-.25.27.31.23.78.79,3.46.77,2,1.4,2.7.44.62-.23-.7L463.29,170,462,165l-.49-1.27-.23-1.13L461,162l-1.37-.21-.95-.26-1.47.74-.84-.08-.16-.76-1.22-1-.36-1.48-.89-.13-1.51-.49-.73-.55-1.84-.29-.29-.16-.23-.24,2.31.14,2.87,1.18.69,0,.27.93.9.83.42.49.58.47.59-.26.52-.47-.17-.69-.25-.45-.7-.75-.91-.4-1.08-.9-1.2-1.5-.17-.36,0-.31,2.07,2.33.8.43.57-.31-.12-.38,0-.64,1.3.35.08-.87-.13-.77-.94-.42.59-.49-1.69-.68-.62-.48-.66-1-.9-.66L453,149.78l-.72-1.11-1.76-1.59.38,0,1.24.86,1.06,1.6.34.28,2.84,3.05.53.14.87-.06.36-.55.12-.87.3-.64,0-.54-.86-.83-1.11-.57-.74-1-.9-.47-2.48-.76-1.33-1.92-.6-.16-1.15.36-.39-.14-.38-.54.28-1.6.22-.85.91-.92.69-.52.44-.68.14-1.37.11,1.35-.34.87-.77.67-.81,1.32-.2.56.08,1,.73.13.75-.54.72,0,.12.62.36.56.57.66.21-.54v-.64l.94,1.53,1.66.41,1.32.66.5.58.58.46.08-.64-.31-.67-.41-.86-2.21-2.24-.25-1-.08-.9.17.39.11.5.7,1.24.59.39.67.51.42-.09-.21-.62-.4-.66-.4-.69-.34-2.54.15-.55.05-.63,0-.7.24-.57-.24-.68-.38-.78.12,0,.69.45.5-.53-.07-.63-.58-.4-.8-1.16,0-.18,1.41.54.17-.34,0-.62.44-.25.13-.49,0-.28.16-.2.52,1,.19-.36.09-1.06.23.22.07.49.7-.28.42-.36.16-.46,0-.69.21-.42.54-.09.45-.2-.11,1,.92-.08-.38.52-.39.11-.46.6.61.15.59.28-.94.1-.93,0-.75.66-.78,1.5.18,1.55.79-.72,0,.5-.48,1.11-.56-.22h-.64l-.16.68v.54l.85-.42.47.33.22.76-.75.36-.51.05-.38,1.31.31-.16.28-.6.62.17.36.62,1.12,1,.38,0,.15.28h-1.06l-.81-.21-.62.23-.29,1.27.29.7.5.9.9.52.62.46.29-.18.13-.34.2-.11.17.49.28-.22.46-.55.28-.08-.17.52.12.69-.2.57-.41.54.35.26.34.08.57.64-.32.64-.21.73,1.1,0,.72.24-.57,1.59L463,152l-.91,1.63-.82,2.62-.21,1.6.12.61.48.71.76-1.71.4-1.52.43-.57.64-.52.63-.23.42-.28-.09-.86,2.3-5.18.58-.77.63-1.36L469,146l.18-.52.07-1,.17-.26.26-.23.16.19v.53l.22-.21.12-.52,0-.93-.35-.91-.36-.25-.72.1.56-.5.42-1.09,0-.66-.91-.51-1.19-1.78-.77-1.53-.2-2.29-1-1.48-.51-.9.06-.93-.13-.45-.06-.63.81-.94.36-.78.6-.62.76-.41,1.4-.37.93-1.09-.28.63-.47.75-1.89.5-.65.49-.47.95-.49,1.35,0,.86,0,.51,1.62,1.83,1.16.67.9.93.81,0,.71.28.74.52-.22,1.19-.32,1.18.29.11,1.22-.74,1.41-2.5.39-.48,0-.55.23-.29.58-.37.4.05.43-.54.17-.82.2-.39-.16-.76.73.16.7-1,.76-1.38.55-2.6.21-.47.3-.21-.19,2,0,.5.29-1.66.2-1.84.23-1.21.3-1,.14-1-.14-.89-.25-.64-.49.28-1.81-.33-.22-.9.35-1,.37-.5.32-.31.35-.17.46-.4.39-.46.93-2,.17-1-.08-1.75-.49-1.43.42.4.41.59.1,1.44-.33,1.78-.39.92-.36,1.09.38-.32.35-.49.56-.19.68-.59,1-1.09.84-.7,3.79-1.93,1.5-.51.94-.86.74.24,3.48-.12,1-.46,1,.26,1.81-.43,1.36-.19,1.52.13,2.33-.6.75-.94.16-2.26.6-.88-.25-1.17.29.11.27.3.19.54.37.49.88-.79.28,0-.53,1.32.15,1.57.19.34.84-.61,1-.13,2.59-2.1.33.06.1,1.29-.12.63.1.3,1.66-.61.73-.56,3.27-.64.69-.08.36.09.14-.42-.07-1.23L518,100.3l-1.24-1.49-.48-.24-.41-.05-.35.12,0,.26.38.46.22-.35.59.41.19.64.8,1.36,0,.58-1.26.71-1.52.52-1.24-.36-.83-.58-.32-1.71-1-.61.1-.44.26-.24-1.14-2.39-.76-.46L508.38,96l-.47-.4,1.1-1.29.56-.83.37-.72.75-.23.86-.59.46-.08.08-.34-.19-.28-.29,0-.4.12-.37-.06-.43-.67-.18-.68-.27-.66.49-1.48.42-1.67.4-.51.46-.32,1.15-2.78,1.52-1.71,1.49-1.9-.33-.39-.3-.21.86-1.23,1.1-.89.92-.27-.09.49v.39l.46-.12.5-.29.3.39.3.23.16-.43-.11-.81.07-.57.22.15.1.5.3.11.29-1.35.44-.51.15.59.12.89.32-.08.32-1.26.14.26.2.85.38-.1.43-.67L524,74l1.12.19.84-.67.65-.78,0-1,1-2.31-.05-1.13,1.08-.68.45-.85.35-.28,0,.81-.28.73.17.11.39-.11.25.16-.79.8-.17.56.84,0,1.05.42.37.52.38.16.17-.6-.07-1,.4-.86.27-.82.32.51.41.32.54-.38.37-.44.3-.1h.45l.44.18.33.15.22.68.35.72.4-.22.28-.26.21-.58.53.14.64-1.62.46-.12.6.25.7.05.51-.19.41-.9.93-.16.89-.54,1.64.28,1.93-2,0-.29-.21-.24-.88-.23-.07-.79.32-.6-.21-1.32-.27-.68.05-.41-.44-.17-.4-.14-.34-.11-.2.19-.19.25-.23.19-.49-.27-.31-.49-.5-.5-.19-.38.1-.44.22-.42.1-.51-.24-.58-.22-.33-.16-.38.06-.36.31-.17.29-.22.1-.48-.18-.51-.51-.21-.42.08-.61-.11-.59-.32-.39-.36-.3-.21h-.23l-.28-.21-.17-.35,0-.57.08-.35.16-.3v-.33l-.07-.24V49l0-.24.1-.48-.17-.35,0-1.21,0-2.28,0-1.75,0-2.21,0-1.61,0-2.26,0-2.15,0-2-1.21-1.18-1.53-1.49-1.32-1-.71-.12-.45.14-.18.39-1,.42-1.78.45-1.52.7h-.56l-.47-.12-.62-.35-.43-.52-.15-.9.13-1.23-.91-.25-.91-.26-.56.85-.54.71-1.07,1.56-1.5,2.18-.83,1.2L519,35.78l-1.29,1.84-.29,1.89-.28,1.79-1.06,1.36-.65,1.24-.29,1.38-.24,1.26,0,1.06.18.55-.08.45-.35.52L514,50l-.12.86-.43.42-1.23.85-1,1.25-.05.7.14.59,0,.36-.2.25-.4,0-.43.08-.36.52v.75l-.27.54-.31.11-.27-.38-.32-.57-.37-.06-.57.38-.7.62-.63,0-1.19-.4-.87,1.2-.93,2.58h-30.2l-.51.06-.89-.06-1.32.45-1.73.94-2.1,1.69L463,67.45l-.06.08.11.08.1.34-.15.38-.39.43-3.84,2.82-1.09,1,.4.57,0,.26.24,0,.79-.49.23.05.11.13.07.31-.36.55.16.12.7-.12.29.06-.27.41-.36.27-.06.26-.53.69-.23.14-.13-.09,0-.31-.49.33,0,.27.28.26.22.4.16.54.08,1.14.1.23,0,.11,0,.13,0,.27.11.24-.08.28-.28.31-.55.17-.82,0-.91.36-1,.69-.69.63-.38.57-.28.24-.18-.1-1.36.47-.49.31-.12.28-.12.05-.13-.18-1-.13L449,83.19l-1.42.09-1,.26-.9-.15-.78-.57-1.24-.45-3.19-.49-2.67.09-2.2.34-3.44,1-.08,0,0,.06L432,85.63l1.49.46.13.16-.05.31-.23.47,0,.63.32.81.13.64-.05.47-.38.45-.71.43-.65.65-.59.88-.8.72-1,.56-1,.7-.91.84L426,96l-3.52,2-.46.22-.41.25-.79.43-.78.44L415,101.14l-3.4,1.55-2.07,1.25-1.8,1.55-.82.47-.89.13-1.41-.08-1.47.19-1.52.46-1,.37-.45.28-.44.08-.42-.11-1.12-.75-.08.06-.21.11-.66-.13h-.75l-.65.28-.65,0-.64-.19.54-.27,2.56-.57,0-.1-.92-.33-.28-.3-.23,0-.18.35-.34.15-.5,0-.5-.26-.5-.48-1.64-.77-.46-.39-.58-.26-.86-.14-.12-.22.14-.3.75-1.44.44-.55.18-.15h.23l.1-.15,0-.31.09-.19.48-.53.27-.28-.11-.44.12-.8.31-1,.35-.75.16.08.14-.26.66-.4,1.28-.68,1.17-1.38.94-.83.94-.85.54-1.47.67-3.58-.14-.27-.28-.55-.52-2.57-.76-4.61L398,75.91l-.5-1.11L396.8,74l-.86-.58-.65-.25-.45.08-.71.47-1.32.41-.54.27-.31.36-.36.21-.42.06,0,.1.33.13v.35l-.89,1.58-.21.36-.54.13-.45.31-.46.79-.44.2-.64-.07-1.07-.48-.64-.48-.21-.48v-.58l.19-.68,0-.55.4-1.14.54-.4.79-.09.43-.18.08-.27.25-.19.41-.11.34-.73.28-1.34.33-.73.24-.13.22,0v.16l.91-.86.34-.6,0-.61.09-1.79.11-1.16L392,65l-.05-1.35-.27-1.12-1-1.23-.14-.41,0-.44.21-.46.46-.11.8.35.14-.08-.22-.21-.13-.41,0-.61-.1-.34-.17-.06-.45-.7-.06-.36.05-.34-.17-.34-.6-.53-1.09-.55-2.6-1-.47-.4-.64-.24-.82-.07-.52-.31-.22-.56-.36-.5-.5-.45-.8-.29-1.09-.14L380,51.19l-1.21-.83-.68-.25-.09,0-.32.27-.57.09-.81-.09-.28.11.25.32-.21.5-.66.68-.38.69-.1.7.1.62.31.54.46.35.6.16.12.22-.35.27-.62.15-.89,0-.9.3-.91.56-.53.5-.15.45,0,.64.12,1.57-.07.61-.39,1.11-.51,1.45-.61.91-.11-.12.1-.44.51-1.45.08-.62,0-.32-.18,0-.2.28-.23.59-.05.32.13.05-.1.4-.32.76-.28.16-.23-.45,0-.59.38-1.18-.14-.23.22-.73.1-.54-.11-.55.09-.51.3-.46-.09-.14-.48.18-.69.87-.9,1.55-.7.67-.5-.2-.4.13-.3.46-.33.22h-.36l-.22.54-.07,1.09-.35.62-1.05.36-.21.28,0,.4.17.52v1L364,68.26l-.35,1.36-.54,1.16-.59,1-1,1.26,0,.25.48,1,.2.73.1,1.46,0,.24-.94,1.79v.26l1,3,.9,2.14.1.23.27.85.5,1.67.26,1.65v1.64l-.12,1.58L364,93l-.38,1.45-.5,1.38-.52,1.09-1.07,1.8-.52,1.2-.54,1-.56.74-1,.82-2.6,1.5-.82.29-.9.11-1-.07-.53-.17-.12-.28-.21,0-.28-.19-.36-.32-.4-.57-.43-1.18-.47-1.79-.41-1.07-.36-.35-.32-.54-.29-.73-.14-1.65V92.84l.1-1.76.19-.94-.05-.72-.3-.49-.19-.62-.07-.74-.16-.5-.24-.26-.05-.37.14-.48v-.33l-.13-.18,0-.27.07-.35-.12-1,0-.63.17-.69.54-1.24.18-.61,0-.62.25-.79.7-1.63,0-.37-.24-.74-.06-.55.05-.74.22-.91.39-1.08.52-.87.65-.65.21-.74-.22-.83.08-1.22.39-1.62.43-1.22.48-.81.33-.78.18-.74-.08-.33-.35-.35-.35-.51-.57-.11-.71.34-.1,0-.36,0-.68.75-.61,1.31-.44.54-.6.36-.45.41-.29.45-.38.1-.47-.25-.09-.62.29-1,.44-.95.9-1.55,0-.37.22-.46,1.39-.67.53-.53.18-.67.05-1,.09-.28.21-.12.61-.83,1-1.55.91-1.61.81-1.66.59-.94.37-.21.28-.5.43-1.55.32-.71.22-.27.1.17-.21.85v.7l.18.9.34.31.51-.28.44-.59.37-.91.42-.37.48.16.4-.06.32-.27.6-.13.11.34-.07.69-.19.33-.31,0-.35.36-.39.75,0,.59.43.44.21,0V52l.2-.4.64-.73.06-.24,1.21-.64.46-.41.12-.47.63-1,.59-.31.81-.13.79.08.76.3h.43l.1-.31.65-.21,1.2-.11L370,47l.56-.78.72-.4h.88l1.19.28,1.51.57,1.22.78L377.73,49l.42.16.28,0,.13-.12v-.15l-.12-.18.08-.66-.07-.19.48-1,.41-.26.48.1.3.22.12.35.15.12h.29l.16.05.09,0,.15-.19,1,.08,3.43.52.47-.08.27-.18.06-.28L386.1,47l-.9-.55-.27-.36-.07-.35.13-.32-.19-.29-.51-.26-1.12-.07-.2-.27.09-.27.33-.33v-.49l-.1-.28-.15-.85-.24-.57-.49-.84-.2-.31-.29-.18-.27,0-.35.16-.41.36-.58.38-.6-.1-.41-.54-.59-.12-.77.31h-.68l-.6-.34-1.14-.16-.13-.25,0-.26.18-.28.1-.65,0-1,.16-.73.29-.43-.44-.18-1.17.07L373.2,37l-1.52.63-1.65.22-1.78-.19-1.35,0L365.4,38l-.26-.1-.94.42-1.62.94-1.21.87-1,1h-.16l-.24-.22-.51-.3h-.54l-.58.28-.59-.18-.6-.64-.54-.18-.49.28-.8.12-1.77-.15-.19-.21-.16-.69-.2-.3-.34-.21-.55-.77-1.21-2-.34-.24-1-.61-.94-.27-2.39-.38-.52-.28-.31.05-1.58,1.07-.07.23-.09.23-.26.37-.21.17-.13-.18L343,35.8l0-.68.17-1.06-.09-.69-.36-.32-.16-.38.05-.45-.26-.36-.58-.27-.27-.35,0-.44-.06-.3-.15-.16-.62.34-1.08.85-.74.76-.39.67-.58.38-.77.09-.61.29-1.09,1-.81.5-1.34.36-1.88.23-1.56.63-1.25,1-1.52.87L325.3,39l-1.21.25-.64-.21-.76-.44-1.14-.79-.17.07.09.16,0,.13-.21.23-1.45.58-.2-.22.54-.81.21-.59v-.55l.24-.68.49-.81.19-.55-.13-.28-.55-.47-.44,0-.56.15-1.71,1.19-.17-.09-.55-.19-.13,0-1.32,1-1.34.61-3.19.88-.81.1-.63-.06-.81-.51-.32-.35,0-.38.38-.4,4-3.2,2.45-2.28,4.06-4.3,1-.86L322.88,24l3.79-1.39,1.87-.77,1.62-.84,1-.64.45-.45.36-.21.28,0,.26-.14-1.87-.19-1.19.28-.88-.28-.44-.89-.49-.56-2.16.27L322.78,18l-1.3.11-.5-.37-.41-1-.72-.12-1.21.22L317,18.11l-1.57.65h-1.24l-1.22-.65-2-1.32-1.39-1.48L308,14.8l-1.2.13-.47.74h-.63l-.44-1.26-.38-1-.78-.42-1.41-1-1-.51-1.51-.63-.52-.11-1-.08-1-.05-1.13.18-.81.78-1,.35-1.36.16-.91-.33-.46-.83-1.93-.74-3.4-.64-2-.55-.52-.46L284,8.08l-.07-.78h0l-.86-2-.37-1.67-.17-2,.06-.66-.2-.21-.61-.44-2-.29ZM17.15,9.51l-.19,0-.56.4-.25.38.16.36.88.46.05-.26-.15-.75.19.06.43.49.27,0,.38-.3L18.25,10l-1.1-.53Zm-2,1.38-.46.1-.07.28.15.86.13.26.43.27,1,.3-.25-.47L16,12l-.85-1.07Zm2.16.88L17,12l-.19.76.1.39.3.32.51.19.15-.14.06-.29-.45-.7-.07-.67-.16,0Zm2.43,2.38-.38.47-.53,1-.23.59.07.2.49.73.31.25.33.07.16.32,0,1,.11.36.32.53.62.16.29.24.23.46.25.19.27-.08.16-.22v-.66l-1.29-1.34-.2.77-.46-1.85L20,16.76l-.25-.19-.69-.21,0-.18,1.42-.75.07-.38-.35-.55-.29-.3-.24-.05Zm323,3-.84.25-1.58.78-3.7,2.13-.44.33-.07.17h.29V21l-.29.42,0,.29.36.16.71-.14,1.06-.43.37-.21.06-.12-.34-.07,0-.23.42-.14L341.54,19l.3-.42,0-.22.15-.33.91-.8-.13-.12ZM20.45,23.75l-.1.09-.13.43,0,.66.17.3.52.32.05-.27-.1-1.23-.09-.11-.31-.19Zm.77,3-.17,0-.19.93,0,.89.39-.45.1.06v.37l.19.06.36-.25,0-.32-.46-.71-.25-.61Zm327.39.08h-1.1l-1.1.17-2,.71-.7.45-1.59,1.62-.44.77-.07.6.39.43,1.32.29.07-.2-.06-.09-.2-.12.35-.55.11.22,0,.61-.28.44-.28.31v.41l.28.51.35-.12.42-.75,1.15-1.19,0-.27.18-.45,2-1.53.38-.48-.08-.18-.42-.26.06-.08,2.18-.27.47-.31-.5-.47-.8-.24ZM17.27,29.75,17,30l0,.39.3.56h.13l.09-.27,0-.16-.34-.81Zm307.25,2.82-.24.07-.16.25-.07.42.12.1.31-.22.16-.25v-.28l-.12-.1ZM321.37,34l-.1.19.05.19.36.23.14-.1-.05-.2-.24-.28-.17,0Zm2,0-.31.08-.7.28v.2l.68.12.32-.08.11-.49-.07-.12Zm-.72,1.29-1.26.78-.28.31-.09.26.23,0,.54-.19.28-.2,0-.21.23-.2.61-.38-.07-.19Zm60.94,4.51-.33.08-.56.66.37.59.24.83.2.33.24.2.29.07v-.29l-.29-.65V41l.26-.63L384,40l-.36-.15Zm.11,3h-.18l-.07.27.1.33L384,44l.13-.07,0-.2,0-.33-.17-.29-.3-.25Zm4.59,3-.15.14.18.34,0,.18-.3.27-.57.36-.43.08-.29-.19-.2,0,0,.35.09.17.4.32.87.17,1.35,0,.66-.23.23-.45-.09-.3-.24-.14-.48-.77L389,46l-.71-.13ZM380,49.7l-.06.23.72.68.44.26.27,0,.21-.14.15-.25-.05-.3-.34-.36-.12.1L380,49.7Zm-9.29.61-.32.51-.33,1.11,0,.63.25.16.32-.07.4-.3.16-.52-.09-1.18.09-.13-.44-.21ZM357.51,55l-.27.77.19.3.52,0,.28-.13.05-.57-.05-.19-.16-.07h-.45l-.11-.14Zm-1,1.65-.37.32-.32.73-.42.47-.52.21-.35.48-.2.76-.34.67-.77,1-.06.28,0,.4.15.52.26.34.37.16.34-.11.87-1.16.08-.26-.11-.12.12-.44.35-.77.26-.37.17,0,.18-.15.18-.33,0-.3-.23-.27v-.11l.26,0,.1-.28-.07-.62.11-.25.29.11.18-.17.06-.46-.18-.28-.42-.09Zm9.43,2-.07.13.21.59.21.18.26,0,.11-.19,0-.39-.18-.25-.51-.08Zm168,9.31-.45.35-.59.87,0,.92.25.23.67.36.07-.25v-.69l.6.11.55-.26,0-.42-.45-1-.58-.24Zm-73.6,2h-.41l-.25.18,0,.15.07.16.3-.11.29-.23,0-.15Zm70,.66-.13.1-.12.22v.65l.38.08.36-.26-.31-.61-.2-.18Zm-71.5,3-.28.08-.15.18v.28l.14,0,.29-.36v-.14ZM432.75,86.13l-.25.16-.05.35.07.28.21.14.28,0,.29-.44.16-.25,0-.14-.68-.13Zm73.41,18-.31.2-.15.23-.26.75-.1.68-.27.47.52.06.47-.34.09-2.05Zm-1.25,1h-.19l-.19.7.1.61.26-.23.1-.72-.09-.37ZM512,106.6l-.55.11-.82.94-.65.19.41.39,2.61-.61-.15-.48-.86-.53Zm5.44.75,0,.29-.18.58-.23.14-1.39.39,1.69.46.73-.2-.07-.41-.53-1.24Zm-21.13,3.07-.93.34L493.75,112l-.77.44-1.93.25-1.94.07-.74.11-.7.34-.87.07-.9-.25-.33,0-.32.18-.44.08H484l-.34.17-.31.31-.09.54-.41-.4-.59.45-1.16.52-.81.83-.37.53-.27.55.16.71.81-.22.51-.65.5-.05.22.19,0,.24-.93.64,1.26-.28,1.38-.09,3.37-.79.35.15.32,0,4.08-1.54.82-.16,1.14-.44,1.21-.62.84-.23,4.12-2.08-1,.21-.93.36-.47-.46-.31.06-1,.28-1.15.65-.49.48-.52.24-.61-.08.67-.81.78-.65,1.45-1.43ZM479,116.59l-.83.55-.45,1.19.45-.05.47-.24.56-.56.11-.36v-.42l-.3-.11ZM479,127.85l-1.39,2.3,0,.35,1.11-1.85.25-.8Zm-9.39,17.57-.37.7-.84,2-1.44,2.39.43-.2,1.23-2.21.63-1.29.36-1.41Zm-5.86,27.81.63,1.28.14-.24V174l-.11-.35-.65-.41Zm2,2.06v.39l.22,1.9-.06,1.07-.46,2.32-1.45.66.11.1,1.27-.31.33-.47.42-1.95.08-1.34-.21-1.77-.24-.61ZM463.1,182l-.79.19-1.13.59.2.05,1.72-.82Zm-4,2.89-.46.28L456.89,187,456,188.4l.24-.13,1.38-1.84,1.42-1.55Zm-4.41,2.74.11.18.51.24.37.12.21,0-.72-.46-.49-.06Zm-409,7.09-.33.13.24.4.06.42.72.31,2.34-.44.12-.25-.19-.28-1,.28-1.93-.58Zm-4.59.07-.43.19-.27.27.78.12.5,0-.44-.4-.14-.14Zm2.8.54-1.7.14.8,1.09.5.15.66-.16.57-.62-.1-.13-.74-.47Zm14.36,6.22-.14.14.06.31,0,.06.49.06.14.16.21.63.22.45.72,0,.69.1-.48-.83-.41-.33-1.54-.7Zm-9.19,2.2-.48,0,.3.61.58.1.42,0,0-.17-.35-.48-.44-.08Zm9.16,2.81-.31.24.58.85.53,1.08.61.23.55-.1-.31-.24-1.18-1.24-.47-.82Zm351.5,22.89-.3.26-.32.55,0,.92.18.95.42-2.67Zm-63.32,7.64-1.46.21-.49.16.25.08,1.23,0,.83-.23-.36-.24Zm-5.8.1.09.21.51.21.84.23.12-.12-.15-.15-1.41-.38Zm-4.37,1-.87.63-.11.18-.21.17-.3.17.69,0,.47.25,0-.51.12-.46.25-.46Zm3,1.22.37,1.4-.26,1.66.27-.35.15-1.36-.13-.73-.39-.61Zm-.05,3.3-.27.22-.38.57,0,.22.51-.57.16-.44Zm39.14.23-.71.16-.61.42-1.17.56-.46-.11-.64.05,1,.28,1-.39,1.61-1Zm-68,1-.77.36.1.4,1.56.94.35-.16.31-.41.07-.3-.13-.19-.27-.13-.75-.48-.47,0Zm-27.46,3.27-.43.55-2.06,1.66.47-.1,1.66-1.16.92-.93-.55,0ZM267.92,257.5l-.14.06-.33.38-.63.08-1.54,1.11-.7.29-.43.58.35,0,2.09-1.31,1.23-.67.09-.47Zm-4.3,2.66-.4.17-.75,1.11-.08.35-.46.87.21,0,.88-1.22.77-.78-.17-.47Zm155.42,3,.57,2.2,1.08,2.84.87,1.81-.16-.78-1.6-4.25-.38-1.23-.39-.6Zm-157.34.31-.66.46-1.56,2.72-.77,2.07-.08.91.3-.61,1-2.56,1.8-3Zm-3.08,6.64-.2,1,0,3,1.27,5.17.78,2.28.13-.49-.3-1.47-1.41-5.28-.33-4.18Zm144,5.23.32,1.15.48,1v-.62l-.35-1.19-.46-.37Zm-.31,1.61.16.7.37.36.68.2.34-.28-.75-.07-.21-.17-.59-.75Zm18.4,12.57-.22.07-.67.46,0,.66-.46.56-.5.31-.24.49-.74,1-.21.49,1.88-2,1.18-2.14Zm-3.49,4.23-.37.44.25-.05.23-.36-.1,0Zm-1.65,1-.37.29-.09.15h.18l.4-.18v-.15l-.13-.11Zm-1.24.9-1.47.26-.49.25.45.18.43-.25.53-.12.55-.33Zm-4.64.1v.18l.4.69v.31l.13.07.28-.21.14-.18,0-.18-.92-.67Zm-1.35.63-.16.62-.5.41.61-.1.33-.15v-.29l-.29-.48Zm-1.94,1.17-.41.2,0,.16.24,0,.42-.1v-.22Z"/></g></g></g></svg>